<?xml version="1.0" encoding="UTF-8" standalone="no"?>
<!DOCTYPE svg PUBLIC "-//W3C//DTD SVG 1.1//EN" "http://www.w3.org/Graphics/SVG/1.1/DTD/svg11.dtd">
<svg width="100%" height="100%" viewBox="0 0 2732 2048" version="1.1" xmlns="http://www.w3.org/2000/svg" xmlns:xlink="http://www.w3.org/1999/xlink" xml:space="preserve" xmlns:serif="http://www.serif.com/" style="fill-rule:evenodd;clip-rule:evenodd;stroke-linejoin:round;stroke-miterlimit:2;">
    <g transform="matrix(0.898166,0,0,0.898166,-568.217,26.1327)">
        <g transform="matrix(439.753,0,0,439.753,717.923,1157.84)">
            <path d="M0.293,-0.686L0.362,-0.686L0.667,-0L0.567,-0L0.476,-0.202L0.186,-0.202L0.1,-0L0,-0L0.293,-0.686ZM0.436,-0.289L0.326,-0.536L0.224,-0.289L0.436,-0.289Z" style="fill-rule:nonzero;"/>
        </g>
        <g transform="matrix(439.753,0,0,439.753,1011.23,1157.84)">
            <path d="M0.075,-0.682L0.173,-0.682L0.173,-0.089L0.48,-0.089L0.48,-0L0.075,-0L0.075,-0.682Z" style="fill-rule:nonzero;"/>
        </g>
        <g transform="matrix(439.753,0,0,439.753,1226.82,1157.84)">
            <path d="M0.07,-0L0.07,-0.683L0.286,-0.683C0.351,-0.683 0.403,-0.666 0.442,-0.63C0.481,-0.595 0.5,-0.548 0.5,-0.489C0.5,-0.449 0.49,-0.414 0.47,-0.383C0.45,-0.353 0.423,-0.33 0.389,-0.317C0.354,-0.303 0.305,-0.296 0.24,-0.296L0.168,-0.296L0.168,-0L0.07,-0ZM0.269,-0.596L0.168,-0.596L0.168,-0.383L0.275,-0.383C0.315,-0.383 0.345,-0.392 0.367,-0.411C0.388,-0.43 0.399,-0.456 0.399,-0.491C0.399,-0.561 0.356,-0.596 0.269,-0.596Z" style="fill-rule:nonzero;"/>
        </g>
        <g transform="matrix(439.753,0,0,439.753,1415.77,1157.84)">
            <path d="M0.293,-0.686L0.362,-0.686L0.667,-0L0.567,-0L0.476,-0.202L0.186,-0.202L0.1,-0L0,-0L0.293,-0.686ZM0.436,-0.289L0.326,-0.536L0.224,-0.289L0.436,-0.289Z" style="fill-rule:nonzero;"/>
        </g>
        <g transform="matrix(439.753,0,0,439.753,1709.09,1157.84)">
            <path d="M0.461,-0.682L0.583,-0.682L0.287,-0.359L0.656,-0L0.522,-0L0.174,-0.337L0.174,-0L0.076,-0L0.076,-0.682L0.174,-0.682L0.174,-0.37L0.461,-0.682Z" style="fill-rule:nonzero;"/>
        </g>
        <g transform="matrix(439.753,0,0,439.753,1997.46,1157.84)">
            <path d="M0.293,-0.686L0.362,-0.686L0.667,-0L0.567,-0L0.476,-0.202L0.186,-0.202L0.1,-0L0,-0L0.293,-0.686ZM0.436,-0.289L0.326,-0.536L0.224,-0.289L0.436,-0.289Z" style="fill-rule:nonzero;"/>
        </g>
        <g transform="matrix(439.753,0,0,439.753,2290.77,1157.84)">
            <path d="M0.244,-0.286L0.17,-0.331C0.123,-0.359 0.09,-0.387 0.071,-0.415C0.051,-0.442 0.041,-0.474 0.041,-0.51C0.041,-0.563 0.06,-0.607 0.097,-0.641C0.134,-0.674 0.183,-0.691 0.242,-0.691C0.299,-0.691 0.351,-0.675 0.399,-0.643L0.399,-0.532C0.35,-0.579 0.297,-0.603 0.24,-0.603C0.208,-0.603 0.182,-0.596 0.162,-0.581C0.141,-0.566 0.131,-0.547 0.131,-0.524C0.131,-0.503 0.138,-0.484 0.153,-0.466C0.168,-0.448 0.193,-0.43 0.226,-0.41L0.301,-0.366C0.384,-0.317 0.426,-0.254 0.426,-0.177C0.426,-0.122 0.407,-0.078 0.371,-0.043C0.334,-0.009 0.287,0.008 0.228,0.008C0.161,0.008 0.099,-0.013 0.044,-0.054L0.044,-0.178C0.097,-0.111 0.158,-0.078 0.227,-0.078C0.258,-0.078 0.283,-0.087 0.303,-0.104C0.324,-0.121 0.334,-0.142 0.334,-0.168C0.334,-0.21 0.304,-0.249 0.244,-0.286Z" style="fill-rule:nonzero;"/>
        </g>
        <g transform="matrix(439.753,0,0,439.753,2492.18,1157.84)">
            <path d="M0.41,-0.692C0.516,-0.692 0.603,-0.659 0.674,-0.592C0.744,-0.525 0.779,-0.441 0.779,-0.341C0.779,-0.24 0.743,-0.157 0.673,-0.091C0.602,-0.025 0.513,0.008 0.405,0.008C0.302,0.008 0.216,-0.025 0.148,-0.091C0.079,-0.157 0.045,-0.24 0.045,-0.339C0.045,-0.441 0.079,-0.525 0.148,-0.592C0.217,-0.659 0.305,-0.692 0.41,-0.692ZM0.414,-0.599C0.336,-0.599 0.272,-0.575 0.221,-0.526C0.171,-0.477 0.146,-0.415 0.146,-0.339C0.146,-0.265 0.171,-0.204 0.222,-0.155C0.272,-0.106 0.335,-0.082 0.411,-0.082C0.487,-0.082 0.551,-0.107 0.602,-0.157C0.653,-0.207 0.678,-0.269 0.678,-0.343C0.678,-0.415 0.653,-0.476 0.602,-0.525C0.551,-0.574 0.488,-0.599 0.414,-0.599ZM0.311,-0.833C0.324,-0.833 0.335,-0.828 0.344,-0.819C0.353,-0.81 0.358,-0.799 0.358,-0.786C0.358,-0.773 0.354,-0.762 0.345,-0.753C0.336,-0.744 0.325,-0.74 0.313,-0.74C0.299,-0.74 0.288,-0.744 0.279,-0.754C0.27,-0.763 0.266,-0.774 0.266,-0.787C0.266,-0.8 0.27,-0.811 0.279,-0.82C0.288,-0.829 0.299,-0.833 0.311,-0.833ZM0.499,-0.833C0.512,-0.833 0.523,-0.828 0.532,-0.819C0.541,-0.81 0.546,-0.799 0.546,-0.786C0.546,-0.773 0.542,-0.762 0.533,-0.753C0.524,-0.744 0.513,-0.74 0.5,-0.74C0.487,-0.74 0.476,-0.744 0.467,-0.754C0.458,-0.763 0.454,-0.774 0.454,-0.787C0.454,-0.8 0.458,-0.811 0.467,-0.82C0.476,-0.829 0.487,-0.833 0.499,-0.833Z" style="fill-rule:nonzero;"/>
        </g>
        <g transform="matrix(439.753,0,0,439.753,2854.2,1157.84)">
            <path d="M0.075,-0.682L0.173,-0.682L0.173,-0.089L0.48,-0.089L0.48,-0L0.075,-0L0.075,-0.682Z" style="fill-rule:nonzero;"/>
        </g>
        <g transform="matrix(439.753,0,0,439.753,3069.79,1157.84)">
            <path d="M0.076,-0.001L0.076,-0.682L0.306,-0.682C0.399,-0.682 0.472,-0.668 0.526,-0.64C0.58,-0.613 0.623,-0.572 0.655,-0.518C0.687,-0.464 0.703,-0.405 0.703,-0.341C0.703,-0.295 0.694,-0.252 0.677,-0.21C0.659,-0.168 0.634,-0.132 0.602,-0.1C0.568,-0.068 0.53,-0.043 0.486,-0.026C0.46,-0.016 0.437,-0.01 0.415,-0.006C0.394,-0.003 0.353,-0.001 0.292,-0.001L0.076,-0.001ZM0.296,-0.595L0.174,-0.595L0.174,-0.088L0.299,-0.088C0.348,-0.088 0.386,-0.091 0.413,-0.098C0.44,-0.105 0.462,-0.113 0.48,-0.123C0.498,-0.134 0.515,-0.146 0.53,-0.161C0.578,-0.21 0.602,-0.272 0.602,-0.346C0.602,-0.419 0.577,-0.479 0.528,-0.525C0.51,-0.543 0.489,-0.557 0.465,-0.568C0.441,-0.579 0.419,-0.586 0.398,-0.59C0.377,-0.593 0.343,-0.595 0.296,-0.595Z" style="fill-rule:nonzero;"/>
        </g>
        <g transform="matrix(439.753,0,0,439.753,3399.6,1157.84)">
            <path d="M0.075,-0.682L0.462,-0.682L0.462,-0.595L0.173,-0.595L0.173,-0.387L0.452,-0.387L0.452,-0.3L0.173,-0.3L0.173,-0.088L0.471,-0.088L0.471,-0.001L0.075,-0.001L0.075,-0.682Z" style="fill-rule:nonzero;"/>
        </g>
    </g>
</svg>
