<?xml version="1.0" encoding="UTF-8"?><svg id="Ebene_2" xmlns="http://www.w3.org/2000/svg" viewBox="0 0 87.87 87.87"><defs><style>.cls-1{fill:#8da5d3;}</style></defs><g id="Ebene_1"><path class="cls-1" d="M86.52,29.65c.87-15.05,2.57-24.3-.03-26.77-2.03-1.94-13.32-2.2-26.56-2.81-8.7-.4-18.93,1.29-27.67,1.22C19.35,1.18,5.95.21,2.79.95.39,1.73.58,12.21.48,25.16c-.06,7.94.42,16.81.2,24.88-.53,18.99-1.65,35.25,1.09,36.2,1.86,2.25,21.57-.56,41.1.02,8.43.25,16.07.15,22.45.52,13.3.76,21.27,2.5,20.78-1.19-.74-8.78.52-18.2.73-27.47.22-9.71-.78-20.2-.31-28.49ZM66.65,48.33c1,2.43,1.26,4.75,1.28,7.38.02,3.99-.57,7.64-.55,11.63.01,1.89.37,4.61-.55,6.26s-3.06,1.37-4.75.52c-1.43-.72-2.04-5.2-1.93-8.19.18-5.09-5.36-1.97-5.73-.8-.38,1.17-.29,1.78-.24,3.01.05,1.33.05,2.7-.47,3.92-.52,1.22-1.68,2.26-3.01,2.25-1.84-.01-2.41-1.86-2.69-3.68-.28-1.82.06-3.06-.33-4.86-.17-.79-.52-1.59-1.18-2.03-1.21-.8-4.62.66-5.37,1.91-.75,1.25,1.17,6.22-.58,8.46-.89,1.14-2.5,2-3.71,1.19-.92-.62-1.16-1.84-1.33-2.93-.23-1.48.07-3.5-.16-4.98-.17-1.1-.18-2.1-.79-3.03s-2.49-1.22-3.56-.9c-1.74.52-2.34,2.43-1.83,4.69.38,1.69-.03,3.56-.94,5.04-.91,1.47-2.9,2.41-4.45,1.62-1.88-.96-1.96-3.56-1.82-5.67.25-3.7.19-7.23-.41-10.73-1.04-6.07.52-11.73.26-15.77-.33-5.03.34-8.13.36-10.8.04-4.03-.5-8.39-.73-8.95-1.29-3.17-3.46-8.33-.73-10.47,1.04-.81,1.82,1.03,2.09,2.32.42,1.97.84,3.93,1.26,5.9,2.83-.67,5.84-.56,8.62.3.29.09.62.19.88.04.24-.13.35-.41.44-.67.92-2.68,2.41-7.7,3.06-7.62.78-.26,2.83,3.11,2.54,5.42s-1.56,4.36-2.81,6.33c1.24.72,2.32,1.78,2.84,3.11.52,1.33.41,2.95-.48,4.08-1.24,1.58-3.69,1.96-4.63,3.73-.94,1.76.21,4.05,1.94,5.05s3.84.79,5.81,1.07c3.72.53,7.23.33,11.6-.05,4.96-.44,7.01.12,10.73-.28,2.04-.22,6.31-.78,6.8,4.89.15,1.76-3.38,3.05-4.74,2.27Z"/></g></svg>
