<svg xmlns="http://www.w3.org/2000/svg" id="Ebene_2" viewBox="0 0 481.05 51.32"><defs><style>.cls-1{fill:#1f1f1d}</style></defs><g id="Ebene_1"><path d="M480.47,20.11c-.61.95-16.63-.44-19.61-.18-1.1.09-2.07.34-3,.94l-.02,6.02c5.19,1.36,10.56.78,15.87.96,1.13.38,1.13,7.12,0,7.5-.77.26-2.75-.03-3.76.04-.58.04-1.12.27-1.75.3-2.34.1-8.59-.53-10.22.61-1.09.76-1.04,6.34-.48,6.81.79.67,5.57.47,6.89.45,5.65-.1,10.13-.5,15.66.15.43.05.75.04,1.01.45v5.83c0,.08-.34,1-.48,1.04-5.72.53-8.41-.29-14.16-.2-.77.01-1.48.31-2.32.32-5.12.06-10.28.07-15.39-.18l.59-38.58c9.96-.67,17.96-.03,27.96-.23,1.43-.03,2.01,0,3.21.84v7.14Z" class="cls-1"/><path d="M399.83,13.38c.03-.22.33-.64.35-.97.81-.05,1.61-.3,2.42-.36,4.52-.31,12.42-.06,17,.29,9.36.73,15.11,8.42,15.66,17.33.45,7.18-1.69,15.07-8.12,19.05-4.2,2.6-6.79,1.89-11.38,2.08s-10.57.83-14.93.32c-.43-.05-.75-.04-1.01-.45V13.38ZM425.47,39.63c3.33-4.06,3.23-12.31-.31-16.2-2.84-3.13-12.31-2.99-16.21-1.99-.89,6.74-.71,13.58-.5,20.37,5.11,1.03,13.29,2.37,17.02-2.18Z" class="cls-1"/><path d="M88.24,51.11c-.42-.26-.4-.58-.45-1-.73-6.16.23-14.65.32-20.98.07-4.79-.58-11.24-.03-15.76.04-.31-.01-.67.29-.88,3.76-.47,7.52-.35,11.3-.41,5.16-.08,15.83-.66,19.89,2.62,5.36,4.33,5.9,14.01.29,18.34-2.54,1.96-8.47,2.8-11.69,2.93-4.06.17-8.36-.88-12.16.71v13.99l-.44.44h-7.32ZM114.02,20.35c-.47-.3-1.22-.65-1.77-.72-2.67-.34-6.54.06-9.39.02-1.32-.02-5.1-.87-5.94.47-.53.84-.46,4.85-.14,5.88.36,1.16,1.73,1.78,2.89,1.81,2.09.06,5.12-.49,7.3-.61,2.75-.15,7.12.83,8.77-2.05.86-1.5-.38-3.97-1.7-4.8Z" class="cls-1"/><path d="M222.01,51.11c-.23-.07-.43-.48-.45-.74,2.56-10.24,5.05-20.64,8-30.79.33-1.14,2-7.03,2.4-7.51.62-.74,13.57-.02,15.53-.31l.46.19,8.73,38.39c-.41,1.23-6.6.74-7.89.64-.6-.39-1.47-7.28-2.11-8.68-.45-.97-2.99-1.04-4.16-1.11-2.19-.13-4.54.09-6.76.02-1.03-.03-2.06-.61-3.08-.18l-2.91,10.07h-7.76ZM244.4,32.17v-4.22c0-.93-2.05-7.86-2.58-8.8-1.67-3.01-3.72-.91-4.54,1.43-1.24,3.53-1.81,7.77-2.55,11.45,1.28.38,9.26.78,9.66.15Z" class="cls-1"/><path d="M26.61,11.79l8.47,39c-.33.38-7.02.52-7.58.18-1.15-1.25-1.58-8.85-2.69-9.28-.52-.21-2.6-.43-3.3-.48-2.38-.16-4.92.09-7.33,0-.87-.03-2.03-.61-2.77-.16l-3.2,9.92c-.37.25-7.09.25-7.62-.01-.4-.19-.65-.65-.54-1.09L10.66,12.07l15.94-.28ZM20.09,18.57c-.47-.51-1.72-.98-2.41-.73-1.5.54-2.89,6.51-3.26,8.16-.19.83-1.22,5.93-.97,6.18,1.51.02,8.76.91,9.37-.22.68-1.25-.03-5.07-.37-6.56-.21-.94-1.95-6.38-2.36-6.83Z" class="cls-1"/><path d="M132.73,51.11c-.93-.29-.16-3.08,0-3.79,1.86-8.35,4.59-17.71,6.96-25.99.37-1.3,2.51-8.79,2.98-9.27.77-.78,13.72.02,15.78-.3l8.63,39.03c-.45.52-6.48.37-7.58.18-.87-.52-1.53-7.24-2.11-8.68-.33-.83-2.95-1.01-3.89-1.08-2.37-.17-4.93.08-7.33,0-.82-.03-2.12-.61-2.78-.17l-3.35,10.06h-7.32ZM154.76,32.11c1.15-1.14-.48-7.31-.96-8.95-.6-2.04-2.01-7.67-4.83-4.54-1.07,1.18-2.13,5.88-2.54,7.67-.18.8-1.21,5.65-.96,5.89,1.64.02,8.37.85,9.3-.07Z" class="cls-1"/><path d="M188.2,31.45l.73.44,16.85-19.94c1.9-1.19,5.7,0,7.89-.16.15,1.03-.48,1.82-1.05,2.6-3.04,4.16-7.85,8.58-10.49,12.87-1.09,1.77-1.14,2.84-.42,4.75,1.85,4.98,6.39,11.45,8.9,16.49.41.83,1.03,1.69,1.02,2.63h-8.34c-.2,0-.72-.42-.83-.66-2.47-3.87-4.1-8.85-6.63-12.6-.3-.44-.39-.93-1.03-1.04-.26-.04-3.05,2.99-3.35,3.38-1.25,1.59-3.01,3.9-3.49,5.85-.43,1.75-.11,3.36-.66,5.03-.29.18-6.22.16-6.84.04-.93-.17-.97-1.42-1.03-2.18-.67-8.19.02-18.51.32-26.81.12-3.25.03-6.52.28-9.77,2.6.15,5.96-1.39,8.2.15v18.94Z" class="cls-1"/><path d="M339.41,15.69c3.91,3.41,6.98,9.94,6.56,15.16-.56,6.88-2.17,11.82-7.6,16.32-4.79,3.97-8.63,4.5-14.7,2.97-14.7-3.7-18.11-25.36-6.97-34.74,7.46-6.28,15.39-6.1,22.71.28ZM334.75,39.65c4.09-4.01,4.86-13.7.37-17.5-4.32-3.66-9.16-4.12-13.71-.58-4.39,3.41-5.11,8.61-3.26,13.68,2.42,6.6,11.3,9.59,16.59,4.4Z" class="cls-1"/><path d="M290.14,22.47c-.15-.05-1.63-1.98-2.12-2.39-2.69-2.25-6.62-2.96-9.87-1.37-2.09,1.03-3.18,4.52-1.56,6.34,1.46,1.63,8.68,1.32,11.15,1.73,4.01.66,8.8,4.02,10.28,7.83,6.57,16.89-22.86,22.34-29.72,9.48-.5-.94-1.29-2.34-.88-3.38.32-.81,5.17-2.32,6.04-2.06s1.8,2.61,2.69,3.45c4.33,4.12,15.4,2.85,14.52-4.25-.62-4.99-11.78-4.29-15.54-5.22-9.4-2.35-10.35-12.74-3.01-18.17,7.8-5.77,20.5-4,24.6,5.35-1.23,1.46-4.69,3.3-6.58,2.67Z" class="cls-1"/><path d="M367.93,12.36v30.16c2.22,1.75,5.28.74,7.74.72,3.66-.04,9.52-.46,12.91,0,.39.05,1.3.37,1.3.74v6.56l-30.44.58.28-38.56c.24-1.04,7.09-.54,8.21-.19Z" class="cls-1"/><path d="M336.55.28c-3.28-.3-6.58-.18-9.87-.26-1.43-.03-2.79-.04-4.23.06-.83.06-1.66.03-2.49.04-.38,0-.77.03-1.15.1-.24.05-.49.08-.71.19-.5.24-.54.97-.55,1.47,0,.77.19,1.46.36,2.2.35,1.53.96,1.68,2.39,1.54,5.39-.53,10.83.09,16.68-.04,1.59-.03.86-3.37.85-4.42,0-.12,0-.25-.05-.37-.17-.39-.85-.49-1.21-.52Z" class="cls-1"/><path d="M55.89,12.36v29.87c0,.95,2.33,1.25,3.08,1.31,1.72.14,3.16-.28,4.67-.3,4.71-.05,9.56-.18,14.21.3v6.99l-30.44.58.28-38.56c.24-1.04,7.09-.54,8.21-.19Z" class="cls-1"/></g></svg>